<svg width="35" height="35" viewBox="0 0 35 35" fill="none" xmlns="http://www.w3.org/2000/svg">
<path d="M17.5 0C27.165 0 35 7.83502 35 17.5C35 27.165 27.165 35 17.5 35C7.83502 35 0 27.165 0 17.5C0 7.83502 7.83502 0 17.5 0ZM15.1455 12.083C14.8323 12.083 14.688 12.7103 15.0977 12.8066C15.507 12.9032 15.627 13.2888 15.627 14.1318V26.9023C15.6269 27.7452 15.507 28.1311 15.0977 28.2275C14.688 28.3239 14.8323 28.9502 15.1455 28.9502H19.4824C19.7955 28.9502 19.9403 28.3243 19.5312 28.2275C19.1217 28.1312 19.001 27.7454 19.001 26.9023V14.1318C19.001 13.2885 19.1216 12.903 19.5312 12.8066C19.9405 12.7101 19.7956 12.083 19.4824 12.083H15.1455ZM17.5 5.25C16.1471 5.25021 15.0508 6.34723 15.0508 7.7002C15.0509 9.05307 16.1471 10.1502 17.5 10.1504C18.853 10.1504 19.9501 9.0532 19.9502 7.7002C19.9502 6.3471 18.8531 5.25 17.5 5.25Z" fill="white"/>
</svg>
