<svg width="150" height="71" viewBox="0 0 150 71" fill="none" xmlns="http://www.w3.org/2000/svg">
<path d="M142.578 53.9563C142.103 53.9563 141.883 53.0058 142.505 52.8595C143.126 52.7133 143.309 52.1284 143.309 50.8489V31.4731C143.309 30.1936 143.126 29.6087 142.505 29.4625C141.883 29.3162 142.103 28.3657 142.578 28.3657H149.158C149.634 28.3657 149.853 29.3162 149.232 29.4625C148.61 29.6087 148.427 30.1936 148.427 31.4731V50.8489C148.427 52.1284 148.61 52.7133 149.232 52.8595C149.853 53.0058 149.634 53.9563 149.158 53.9563H142.578Z" fill="white"/>
<path d="M127.185 43.8663V50.8489C127.185 52.1284 127.368 52.7133 127.989 52.8595C128.611 53.0058 128.392 53.9563 127.916 53.9563H121.336C120.861 53.9563 120.641 53.0058 121.263 52.8595C121.884 52.7133 122.067 52.1284 122.067 50.8489V31.4731C122.067 30.1936 121.884 29.6087 121.263 29.4625C120.641 29.3162 120.861 28.3657 121.336 28.3657H127.916C128.392 28.3657 128.611 29.3162 127.989 29.4625C127.368 29.6087 127.185 30.1936 127.185 31.4731V41.5997L134.314 33.1183C135.74 31.2538 135.849 30.1205 134.46 29.4259C133.875 29.1334 134.095 28.3657 134.643 28.3657H140.09C140.712 28.3657 140.821 29.2431 140.127 29.4625C139.066 29.828 138.555 30.3399 137.714 31.3269L132.413 37.6514L138.335 50.9585C138.957 52.2015 139.432 52.6402 140.127 52.8595C140.675 53.0423 140.492 53.9563 140.054 53.9563H132.449C131.974 53.9563 131.755 53.0789 132.376 52.8595C132.925 52.6402 133.107 51.9821 132.778 51.0316L128.757 42.0018L127.185 43.8663Z" fill="white"/>
<path d="M102.3 46.0598L101.131 49.6424C100.619 51.6166 101.204 52.5305 102.374 52.8595C103.032 53.0423 102.776 53.9563 102.3 53.9563H97.6576C97.1823 53.9563 96.9995 53.1154 97.5845 52.8595C98.3156 52.5305 98.7909 51.9456 99.3027 50.5564L105.81 30.4495C105.518 29.9012 105.262 29.6087 104.823 29.4625C104.201 29.2797 104.421 28.3657 104.896 28.3657H110.636L117.838 50.5929C118.349 51.9821 118.678 52.6402 119.373 52.8595C119.994 53.0423 119.775 53.9563 119.3 53.9563H112.464C111.988 53.9563 111.806 53.1886 112.39 52.8595C112.829 52.6036 112.902 52.0553 112.5 50.6295L111.001 46.0598H102.3ZM102.776 44.5974H110.526L106.651 32.643L102.776 44.5974Z" fill="white"/>
<path d="M94.8918 28.3657C95.6596 28.3657 95.8424 29.0238 95.5499 29.6087L83.3761 52.494H88.6039C91.7479 52.494 93.6489 51.2875 95.0381 48.6919C95.3671 48.0339 96.1348 48.2532 96.0617 48.8747L95.4402 53.9563H78.0386C77.3075 53.9563 77.0516 53.481 77.4172 52.7864L89.6275 29.828H84.6922C81.5482 29.828 79.6472 31.0345 78.258 33.6301C77.929 34.2881 77.1613 34.0688 77.2344 33.4473L77.8559 28.3657H94.8918Z" fill="white"/>
<path d="M58.6383 46.0598L57.4685 49.6424C56.9567 51.6166 57.5416 52.5305 58.7115 52.8595C59.3695 53.0423 59.1136 53.9563 58.6383 53.9563H53.9955C53.5202 53.9563 53.3374 53.1154 53.9224 52.8595C54.6535 52.5305 55.1288 51.9456 55.6406 50.5564L62.1479 30.4495C61.8554 29.9012 61.5995 29.6087 61.1608 29.4625C60.5394 29.2797 60.7587 28.3657 61.234 28.3657H66.9735L74.1755 50.5929C74.6873 51.9821 75.0163 52.6402 75.7109 52.8595C76.3324 53.0423 76.113 53.9563 75.6378 53.9563H68.8014C68.3262 53.9563 68.1434 53.1886 68.7283 52.8595C69.167 52.6036 69.2401 52.0553 68.838 50.6295L67.3391 46.0598H58.6383ZM59.1136 44.5974H66.8639L62.9887 32.643L59.1136 44.5974Z" fill="white"/>
<path d="M44.1425 41.4169L38.3663 31.4366C37.6352 30.2667 37.1233 29.7915 36.4287 29.4625C35.8073 29.17 36.0266 28.3657 36.5019 28.3657H44.3618C44.8371 28.3657 45.0199 29.0969 44.4349 29.4625C43.8866 29.7915 43.7403 30.3399 44.5446 31.8387L48.4197 38.5654L51.6003 33.0451C52.5873 31.1076 52.6239 30.0108 51.3078 29.4625C50.6498 29.2066 50.9057 28.3657 51.3809 28.3657H56.3528C56.8281 28.3657 57.0109 29.2066 56.4259 29.4625C55.4754 29.828 54.9271 30.3764 54.0131 31.8022L49.2606 40.0277V50.8489C49.2606 52.1284 49.4434 52.7133 50.0648 52.8595C50.6863 53.0058 50.467 53.9563 49.9917 53.9563H43.4113C42.9361 53.9563 42.7167 53.0058 43.3382 52.8595C43.9597 52.7133 44.1425 52.1284 44.1425 50.8489V41.4169Z" fill="white"/>
<path d="M27.87 53.9563C27.3948 53.9563 27.1754 53.0058 27.7969 52.8595C28.4184 52.7133 28.6012 52.1284 28.6012 50.8489V31.4731C28.6012 30.1936 28.4184 29.6087 27.7969 29.4625C27.1754 29.3162 27.3948 28.3657 27.87 28.3657H34.4504C34.9257 28.3657 35.1451 29.3162 34.5236 29.4625C33.9021 29.6087 33.7193 30.1936 33.7193 31.4731V50.8489C33.7193 52.1284 33.9021 52.7133 34.5236 52.8595C35.1451 53.0058 34.9257 53.9563 34.4504 53.9563H27.87Z" fill="white"/>
<path d="M11.4181 49.7521C10.5407 49.7521 10.1385 48.765 9.69985 47.9242L2.90008 34.544V49.7521C2.90008 51.3241 3.19254 52.3112 3.99681 52.8961C4.50862 53.2617 4.36239 53.9563 3.81402 53.9563H0.52381C-0.0245595 53.9563 -0.170791 53.2617 0.34102 52.8961C1.14529 52.3112 1.43776 51.3241 1.43776 49.7521V32.5699C1.43776 30.9979 1.14529 30.0108 0.34102 29.4259C-0.170791 29.0603 -0.0245595 28.3657 0.52381 28.3657H3.99681C5.02044 28.3657 5.67848 28.7679 6.11717 29.6453L13.5019 44.1222L20.8866 29.6087C21.2522 28.8775 21.6543 28.3657 22.6048 28.3657H25.5294C26.0047 28.3657 26.0778 29.3528 25.6026 29.4625C24.9811 29.6087 24.7983 30.1936 24.7983 31.4731V50.8489C24.7983 52.1284 24.9811 52.7133 25.6026 52.8595C26.0778 52.9692 26.0047 53.9563 25.5294 53.9563H18.949C18.4738 53.9563 18.2544 53.0058 18.8759 52.8595C19.4974 52.7133 19.6802 52.1284 19.6802 50.8489V35.1655L13.1729 47.9242C12.6976 48.8382 12.2589 49.7521 11.4181 49.7521Z" fill="white"/>
<path d="M80.3369 13.1609C80.3369 5.95894 85.784 0 92.4376 0C99.0546 0 104.502 5.95894 104.502 13.1609C104.502 20.3628 99.0546 26.3217 92.4376 26.3217C85.784 26.3217 80.3369 20.3628 80.3369 13.1609ZM85.2722 9.57818C85.2722 17.4747 89.8785 24.3841 94.6311 24.3841C97.5557 24.3841 99.4933 21.7885 99.4933 16.5607C99.4933 8.59111 94.9966 2.01069 90.1344 2.01069C87.027 2.01069 85.2722 4.71597 85.2722 9.57818Z" fill="white"/>
<path d="M63.7077 18.0598L62.5378 21.6424C62.026 23.6166 62.6109 24.5305 63.7808 24.8595C64.4388 25.0423 64.1829 25.9563 63.7077 25.9563H59.0648C58.5896 25.9563 58.4068 25.1154 58.9917 24.8595C59.7229 24.5305 60.1981 23.9456 60.7099 22.5564L67.2172 2.44953C66.9248 1.90116 66.6689 1.60869 66.2302 1.46246C65.6087 1.27967 65.828 0.365723 66.3033 0.365723H72.0429L79.2448 22.5929C79.7566 23.9821 80.0856 24.6402 80.7802 24.8595C81.4017 25.0423 81.1824 25.9563 80.7071 25.9563H73.8708C73.3955 25.9563 73.2127 25.1886 73.7977 24.8595C74.2364 24.6036 74.3095 24.0553 73.9073 22.6295L72.4085 18.0598H63.7077ZM64.1829 16.5974H71.9332L68.0581 4.643L64.1829 16.5974Z" fill="white"/>
<path d="M49.2118 13.4169L43.4356 3.43659C42.7045 2.26674 42.1927 1.79148 41.4981 1.46246C40.8766 1.17 41.0959 0.365723 41.5712 0.365723H49.4311C49.9064 0.365723 50.0892 1.09688 49.5043 1.46246C48.9559 1.79148 48.8097 2.33985 49.6139 3.83873L53.4891 10.5654L56.6696 5.04514C57.6567 3.10757 57.6932 2.01083 56.3772 1.46246C55.7191 1.20656 55.975 0.365723 56.4503 0.365723H61.4222C61.8974 0.365723 62.0802 1.20656 61.4953 1.46246C60.5448 1.82804 59.9964 2.37641 59.0824 3.80217L54.3299 12.0277V22.8489C54.3299 24.1284 54.5127 24.7133 55.1342 24.8595C55.7557 25.0058 55.5363 25.9563 55.0611 25.9563H48.4806C48.0054 25.9563 47.786 25.0058 48.4075 24.8595C49.029 24.7133 49.2118 24.1284 49.2118 22.8489V13.4169Z" fill="white"/>
<path d="M26.9352 18.0598L25.7654 21.6424C25.2535 23.6166 25.8385 24.5305 27.0083 24.8595C27.6664 25.0423 27.4105 25.9563 26.9352 25.9563H22.2924C21.8171 25.9563 21.6343 25.1154 22.2192 24.8595C22.9504 24.5305 23.4257 23.9456 23.9375 22.5564L30.4448 2.44953C30.1523 1.90116 29.8964 1.60869 29.4577 1.46246C28.8362 1.27967 29.0556 0.365723 29.5308 0.365723H35.2704L42.4723 22.5929C42.9841 23.9821 43.3132 24.6402 44.0078 24.8595C44.6293 25.0423 44.4099 25.9563 43.9346 25.9563H37.0983C36.6231 25.9563 36.4403 25.1886 37.0252 24.8595C37.4639 24.6036 37.537 24.0553 37.1349 22.6295L35.636 18.0598H26.9352ZM27.4105 16.5974H35.1607L31.2856 4.643L27.4105 16.5974Z" fill="white"/>
<path d="M6.33648 13.8922V22.8489C6.33648 24.1284 6.51927 24.7133 7.14075 24.8595C7.76224 25.0058 7.54289 25.9563 7.06764 25.9563H0.487208C0.011955 25.9563 -0.207393 25.0058 0.414092 24.8595C1.03558 24.7133 1.21837 24.1284 1.21837 22.8489V3.47315C1.21837 2.19362 1.03558 1.60869 0.414092 1.46246C-0.207393 1.31623 0.011955 0.365723 0.487208 0.365723H7.06764C7.54289 0.365723 7.76224 1.31623 7.14075 1.46246C6.51927 1.60869 6.33648 2.19362 6.33648 3.47315V12.4298H14.3792V3.47315C14.3792 2.19362 14.1964 1.60869 13.5749 1.46246C12.9535 1.31623 13.1728 0.365723 13.6481 0.365723H20.2285C20.7037 0.365723 20.9231 1.31623 20.3016 1.46246C19.6801 1.60869 19.4973 2.19362 19.4973 3.47315V22.8489C19.4973 24.1284 19.6801 24.7133 20.3016 24.8595C20.9231 25.0058 20.7037 25.9563 20.2285 25.9563H13.6481C13.1728 25.9563 12.9535 25.0058 13.5749 24.8595C14.1964 24.7133 14.3792 24.1284 14.3792 22.8489V13.8922H6.33648Z" fill="white"/>
<path d="M0.600629 69V60.0907H4.40461V61.2919H1.87697V63.9072H4.07927V65.1084H1.87697V67.7237H4.40461V69H0.600629ZM7.10891 69L8.9108 64.3326L7.24655 60.0907H8.59797L9.56148 62.7309L10.5375 60.0907H11.8889L10.1871 64.3326L12.0266 69H10.6751L9.56148 65.9969L8.46032 69H7.10891ZM15.1007 69V60.0907H17.0152C17.3655 60.0907 17.6742 60.1366 17.9411 60.2283C18.2081 60.3201 18.45 60.4827 18.6669 60.7163C18.8838 60.9499 19.034 61.2252 19.1174 61.5422C19.2008 61.8508 19.2425 62.2721 19.2425 62.806C19.2425 63.2064 19.2175 63.5443 19.1674 63.8196C19.1257 64.0949 19.0298 64.3535 18.8796 64.5954C18.7044 64.8874 18.4709 65.1168 18.1789 65.2836C17.8869 65.4421 17.5032 65.5214 17.0277 65.5214H16.377V69H15.1007ZM16.377 61.2919V64.3201H16.9902C17.2488 64.3201 17.449 64.2826 17.5908 64.2075C17.7326 64.1324 17.8369 64.0281 17.9036 63.8947C17.9703 63.7695 18.0079 63.6152 18.0162 63.4317C18.0329 63.2481 18.0413 63.0438 18.0413 62.8185C18.0413 62.61 18.0371 62.4139 18.0287 62.2304C18.0204 62.0385 17.9829 61.8717 17.9161 61.7299C17.8494 61.5881 17.7493 61.4796 17.6158 61.4045C17.4823 61.3295 17.2905 61.2919 17.0402 61.2919H16.377ZM22.699 69V60.0907H26.5029V61.2919H23.9753V63.9072H26.1776V65.1084H23.9753V67.7237H26.5029V69H22.699ZM31.1092 61.2919V64.0698H31.835C32.0602 64.0698 32.2396 64.0406 32.3731 63.9822C32.5065 63.9155 32.6108 63.8237 32.6859 63.707C32.7526 63.5902 32.7985 63.4484 32.8235 63.2815C32.8486 63.1063 32.8611 62.9061 32.8611 62.6809C32.8611 62.4556 32.8486 62.2596 32.8235 62.0928C32.7985 61.9176 32.7485 61.7674 32.6734 61.6423C32.5149 61.4087 32.2146 61.2919 31.7724 61.2919H31.1092ZM29.8329 69V60.0907H31.885C33.3866 60.0907 34.1374 60.9624 34.1374 62.7059C34.1374 63.2315 34.054 63.6778 33.8871 64.0448C33.7286 64.4119 33.445 64.708 33.0363 64.9332L34.4127 69H33.0613L31.8725 65.196H31.1092V69H29.8329ZM37.7009 69V60.0907H38.9772V69H37.7009ZM42.7199 69V60.0907H46.5239V61.2919H43.9963V63.9072H46.1986V65.1084H43.9963V67.7237H46.5239V69H42.7199ZM49.8038 69V60.0907H51.0301L52.9571 65.4588H52.9821V60.0907H54.2585V69H53.0572L51.1052 63.6444H51.0801V69H49.8038ZM61.9708 66.4598V67.0104C61.9708 67.2857 61.9165 67.5485 61.8081 67.7987C61.708 68.0407 61.5662 68.2576 61.3826 68.4494C61.1991 68.6413 60.9822 68.7956 60.732 68.9124C60.49 69.0209 60.2273 69.0751 59.9436 69.0751C59.7017 69.0751 59.4556 69.0417 59.2054 68.975C58.9551 68.9082 58.7299 68.7914 58.5296 68.6246C58.3294 68.4578 58.1626 68.245 58.0291 67.9864C57.904 67.7195 57.8414 67.3816 57.8414 66.9729V62.0677C57.8414 61.7758 57.8915 61.5047 57.9916 61.2544C58.0917 61.0041 58.2335 60.7872 58.417 60.6037C58.6006 60.4202 58.8174 60.2784 59.0677 60.1783C59.3263 60.0698 59.6099 60.0156 59.9186 60.0156C60.5192 60.0156 61.0072 60.2116 61.3826 60.6037C61.5662 60.7956 61.708 61.025 61.8081 61.2919C61.9165 61.5505 61.9708 61.8342 61.9708 62.1428V62.6433H60.6944V62.2179C60.6944 61.9676 60.6235 61.7507 60.4817 61.5672C60.3399 61.3837 60.148 61.2919 59.9061 61.2919C59.5891 61.2919 59.3764 61.392 59.2679 61.5922C59.1678 61.7841 59.1178 62.0302 59.1178 62.3305V66.8853C59.1178 67.1439 59.172 67.3608 59.2804 67.536C59.3972 67.7112 59.6016 67.7987 59.8936 67.7987C59.977 67.7987 60.0646 67.7862 60.1564 67.7612C60.2565 67.7278 60.3482 67.6778 60.4316 67.611C60.5067 67.5443 60.5693 67.4525 60.6193 67.3358C60.6694 67.219 60.6944 67.073 60.6944 66.8978V66.4598H61.9708ZM65.5148 69V60.0907H69.3188V61.2919H66.7911V63.9072H68.9934V65.1084H66.7911V67.7237H69.3188V69H65.5148ZM77.5107 69V60.0907H78.787V69H77.5107ZM82.5297 69V60.0907H83.756L85.3952 64.8081H85.4202L87.0469 60.0907H88.2857V69H87.0094V63.5818H86.9843L85.7205 67.4108H85.0823L83.831 63.5818H83.806V69H82.5297ZM91.9854 69V60.0907H93.2117L94.8509 64.8081H94.8759L96.5026 60.0907H97.7414V69H96.4651V63.5818H96.44L95.1762 67.4108H94.5381L93.2867 63.5818H93.2617V69H91.9854ZM101.441 69V60.0907H105.245V61.2919H102.717V63.9072H104.92V65.1084H102.717V67.7237H105.245V69H101.441ZM109.851 61.2919V64.0698H110.577C110.802 64.0698 110.982 64.0406 111.115 63.9822C111.249 63.9155 111.353 63.8237 111.428 63.707C111.495 63.5902 111.541 63.4484 111.566 63.2815C111.591 63.1063 111.603 62.9061 111.603 62.6809C111.603 62.4556 111.591 62.2596 111.566 62.0928C111.541 61.9176 111.491 61.7674 111.415 61.6423C111.257 61.4087 110.957 61.2919 110.515 61.2919H109.851ZM108.575 69V60.0907H110.627C112.129 60.0907 112.88 60.9624 112.88 62.7059C112.88 63.2315 112.796 63.6778 112.629 64.0448C112.471 64.4119 112.187 64.708 111.778 64.9332L113.155 69H111.803L110.615 65.196H109.851V69H108.575ZM120.535 62.6559H119.258V62.3681C119.258 62.0761 119.188 61.8258 119.046 61.6173C118.912 61.4004 118.683 61.2919 118.358 61.2919C118.182 61.2919 118.041 61.3253 117.932 61.392C117.824 61.4588 117.736 61.5422 117.669 61.6423C117.603 61.7507 117.557 61.8759 117.532 62.0177C117.507 62.1512 117.494 62.293 117.494 62.4431C117.494 62.6183 117.498 62.7643 117.507 62.8811C117.523 62.9979 117.557 63.1022 117.607 63.1939C117.657 63.2857 117.728 63.3649 117.819 63.4317C117.92 63.4984 118.053 63.5651 118.22 63.6319L119.196 64.0198C119.48 64.1282 119.709 64.2575 119.884 64.4077C120.059 64.5495 120.197 64.7163 120.297 64.9082C120.389 65.1084 120.451 65.3378 120.485 65.5964C120.518 65.8467 120.535 66.1345 120.535 66.4598C120.535 66.8352 120.497 67.1856 120.422 67.5109C120.347 67.8279 120.226 68.0991 120.059 68.3243C119.884 68.5579 119.655 68.7414 119.371 68.8749C119.087 69.0083 118.741 69.0751 118.333 69.0751C118.024 69.0751 117.736 69.0209 117.469 68.9124C117.202 68.804 116.973 68.6538 116.781 68.4619C116.589 68.2701 116.435 68.049 116.318 67.7987C116.209 67.5401 116.155 67.2607 116.155 66.9604V66.4849H117.432V66.8853C117.432 67.1189 117.498 67.3316 117.632 67.5235C117.774 67.707 118.007 67.7987 118.333 67.7987C118.549 67.7987 118.716 67.7695 118.833 67.7112C118.958 67.6444 119.054 67.5527 119.121 67.4359C119.188 67.3191 119.225 67.1814 119.233 67.0229C119.25 66.8561 119.258 66.6726 119.258 66.4724C119.258 66.2388 119.25 66.0469 119.233 65.8968C119.217 65.7466 119.183 65.6256 119.133 65.5339C119.075 65.4421 118.996 65.367 118.896 65.3086C118.804 65.2502 118.679 65.1877 118.52 65.1209L117.607 64.7455C117.056 64.5203 116.685 64.2242 116.493 63.8571C116.31 63.4817 116.218 63.0146 116.218 62.4556C116.218 62.122 116.264 61.805 116.355 61.5047C116.447 61.2043 116.585 60.9457 116.768 60.7288C116.944 60.5119 117.165 60.3409 117.432 60.2158C117.707 60.0823 118.032 60.0156 118.408 60.0156C118.725 60.0156 119.012 60.074 119.271 60.1908C119.538 60.3076 119.767 60.4619 119.959 60.6538C120.343 61.0542 120.535 61.513 120.535 62.0302V62.6559ZM124.029 69V60.0907H125.305V69H124.029ZM133.378 60.0907L131.551 69H130.425L128.61 60.0907H129.962L130.975 66.3097H131L132.026 60.0907H133.378ZM136.646 69V60.0907H140.45V61.2919H137.923V63.9072H140.125V65.1084H137.923V67.7237H140.45V69H136.646Z" fill="white"/>
</svg>
