<svg width="1171" height="1209" viewBox="0 0 1171 1209" fill="none" xmlns="http://www.w3.org/2000/svg">
<path d="M584.5 0C649.946 0 703 53.0543 703 118.5C703 155.917 685.658 189.283 658.573 211H1170.75V375H721.75V374.7L696.496 344.47C696.588 356.053 698.426 618.339 677.101 785.829C655.824 952.935 588.291 1207.88 588.21 1208.19C588.116 1207.84 520.639 952.86 498.243 785.829C475.959 619.631 474.094 359.927 474.004 344.768L449 374.7V375H0V211H510.427C483.342 189.283 466 155.917 466 118.5C466 53.0543 519.054 0 584.5 0Z" fill="white"/>
</svg>
